# xmcd
#
# Track frame offsets:
#	150
#	21783
#	40728
#
# Disc length: 759
#
# Revision: 3
# Processed by: cddbd v1.5.1PL0 Copyright (c) Steve Scherf et al.
# Submitted via: Media_Universe 3.0
# Normalized: r2:TDELIM( - ),TSWAP
#
DISCID=1902f503
DTITLE=Alannah Myles - alannah myles - Black velvet [CD Single)
DYEAR=1990
DGENRE=Rock
TTITLE0=alannah myles - Black velvet
TTITLE1=allannah myles - If you want to
TTITLE2=alannah myles - Who loves you
EXTD=
EXTT0=
EXTT1=
EXTT2=
PLAYORDER=
